<svg xmlns="http://www.w3.org/2000/svg" width="33.988" height="33.988" viewBox="0 0 33.988 33.988">
  <path id="account" d="M.93,33.443a1.545,1.545,0,0,0,3.09,0A13.8,13.8,0,0,1,12.05,20.883a10.749,10.749,0,0,0,11.764-.012,14.1,14.1,0,0,1,3.94,2.743,13.815,13.815,0,0,1,4.074,9.83,1.545,1.545,0,0,0,3.09,0,16.883,16.883,0,0,0-4.979-12.015,17.108,17.108,0,0,0-3.662-2.756,10.815,10.815,0,1,0-16.72-.014A16.892,16.892,0,0,0,.93,33.443ZM17.922,4.09A7.725,7.725,0,1,1,10.2,11.814,7.734,7.734,0,0,1,17.922,4.09Z" transform="translate(-0.93 -1)" fill="#278cb3"/>
</svg>
