<svg xmlns="http://www.w3.org/2000/svg" width="32.604" height="32.604" viewBox="0 0 32.604 32.604">
  <g id="alert" transform="translate(-2 -2)">
    <path id="Path_202" data-name="Path 202" d="M18.3,2A16.32,16.32,0,0,0,2,18.3a16.121,16.121,0,0,0,1.347,6.456L2.023,32.707A1.63,1.63,0,0,0,3.63,34.6a1.681,1.681,0,0,0,.269-.023l7.947-1.324A16.1,16.1,0,0,0,18.3,34.6,16.3,16.3,0,0,0,18.3,2Zm0,29.344a12.9,12.9,0,0,1-5.542-1.252,1.658,1.658,0,0,0-.7-.154,1.868,1.868,0,0,0-.269.021L5.611,30.99l1.032-6.185a1.63,1.63,0,0,0-.134-.962,13.034,13.034,0,1,1,11.793,7.5Z" transform="translate(0)" fill="#278cb3"/>
    <path id="Path_203" data-name="Path 203" d="M12.63,8A1.63,1.63,0,0,0,11,9.63v4.891a1.63,1.63,0,0,0,3.26,0V9.63A1.63,1.63,0,0,0,12.63,8Z" transform="translate(5.672 3.781)" fill="#278cb3"/>
    <path id="Path_204" data-name="Path 204" d="M13.784,14.473a1.647,1.647,0,1,0,.334,1.773A1.63,1.63,0,0,0,13.784,14.473Z" transform="translate(5.676 7.563)" fill="#278cb3"/>
  </g>
</svg>
