<svg xmlns="http://www.w3.org/2000/svg" width="34.528" height="36.485" viewBox="0 0 34.528 36.485">
  <path id="box_1_" data-name="box (1)" d="M48.247,7.765a1.142,1.142,0,0,0-.708-1.056L31.417.086a1.142,1.142,0,0,0-.868,0L14.427,6.709a1.142,1.142,0,0,0-.708,1.056V28.721a1.142,1.142,0,0,0,.708,1.056L30.549,36.4a1.138,1.138,0,0,0,.866,0c.014,0-.6.246,16.124-6.623a1.141,1.141,0,0,0,.708-1.056ZM30.983,13.25l-5.941-2.44,12.838-5.6,6.338,2.6ZM16,9.564l5.125,2.106v5.94a1.141,1.141,0,0,0,2.283,0v-5l6.431,2.642V33.641L16,27.955ZM30.983,2.375,34.94,4,22.1,9.6,17.748,7.813Zm1.141,12.874,13.84-5.685V27.955l-13.84,5.685Z" transform="translate(-13.719)" fill="#278cb3"/>
</svg>
