<svg id="idea" xmlns="http://www.w3.org/2000/svg" width="42.478" height="42.478" viewBox="0 0 42.478 42.478">
  <g id="Group_144" data-name="Group 144" transform="translate(10.041 10.04)">
    <g id="Group_143" data-name="Group 143">
      <path id="Path_223" data-name="Path 223" d="M129.544,121.323a11.074,11.074,0,0,0-8.171,8.05,11.239,11.239,0,0,0,3.008,10.835A6.04,6.04,0,0,1,126,144.471v.267a3.725,3.725,0,0,0,1.244,2.78v2.2a3.738,3.738,0,0,0,3.733,3.733h2.489a3.738,3.738,0,0,0,3.733-3.733v-2.2a3.724,3.724,0,0,0,1.244-2.78v-.272a6.243,6.243,0,0,1,1.706-4.344,11.208,11.208,0,0,0-10.607-18.8Zm5.167,28.394a1.246,1.246,0,0,1-1.244,1.244h-2.489a1.246,1.246,0,0,1-1.244-1.244v-1.244h4.978Zm3.677-11.352a8.662,8.662,0,0,0-2.433,6.1v.272a1.246,1.246,0,0,1-1.244,1.244h-4.978a1.246,1.246,0,0,1-1.244-1.244v-.267a8.449,8.449,0,0,0-2.366-6.04,8.773,8.773,0,0,1-2.335-8.461,8.563,8.563,0,0,1,6.321-6.224,8.719,8.719,0,0,1,8.279,14.617Z" transform="translate(-121.024 -121.012)" fill="#278cb3"/>
    </g>
  </g>
  <g id="Group_146" data-name="Group 146" transform="translate(5.915 5.915)">
    <g id="Group_145" data-name="Group 145">
      <path id="Path_224" data-name="Path 224" d="M76.938,75.179l-3.52-3.52a1.244,1.244,0,0,0-1.76,1.76l3.52,3.52a1.244,1.244,0,0,0,1.76-1.76Z" transform="translate(-71.294 -71.295)" fill="#278cb3"/>
    </g>
  </g>
  <g id="Group_148" data-name="Group 148" transform="translate(0 19.994)">
    <g id="Group_147" data-name="Group 147">
      <path id="Path_225" data-name="Path 225" d="M6.305,241H1.244a1.244,1.244,0,0,0,0,2.489H6.305a1.244,1.244,0,0,0,0-2.489Z" transform="translate(0 -241)" fill="#278cb3"/>
    </g>
  </g>
  <g id="Group_150" data-name="Group 150" transform="translate(34.928 19.994)">
    <g id="Group_149" data-name="Group 149">
      <path id="Path_226" data-name="Path 226" d="M427.305,241h-5.061a1.244,1.244,0,0,0,0,2.489h5.061a1.244,1.244,0,1,0,0-2.489Z" transform="translate(-421 -241)" fill="#278cb3"/>
    </g>
  </g>
  <g id="Group_152" data-name="Group 152" transform="translate(30.554 5.915)">
    <g id="Group_151" data-name="Group 151">
      <path id="Path_227" data-name="Path 227" d="M373.924,71.659a1.244,1.244,0,0,0-1.76,0l-3.52,3.52a1.244,1.244,0,1,0,1.76,1.76l3.52-3.52A1.244,1.244,0,0,0,373.924,71.659Z" transform="translate(-368.279 -71.295)" fill="#278cb3"/>
    </g>
  </g>
  <g id="Group_154" data-name="Group 154" transform="translate(19.994)">
    <g id="Group_153" data-name="Group 153">
      <path id="Path_228" data-name="Path 228" d="M242.244,0A1.244,1.244,0,0,0,241,1.244V6.305a1.244,1.244,0,0,0,2.489,0V1.244A1.244,1.244,0,0,0,242.244,0Z" transform="translate(-241)" fill="#278cb3"/>
    </g>
  </g>
  <g id="Group_156" data-name="Group 156" transform="translate(15.184 15.016)">
    <g id="Group_155" data-name="Group 155">
      <path id="Path_229" data-name="Path 229" d="M189.073,181a6.8,6.8,0,0,0-1.548.182,6.139,6.139,0,0,0-4.47,4.4,1.244,1.244,0,1,0,2.416.6,3.644,3.644,0,0,1,2.621-2.571,4.312,4.312,0,0,1,.981-.117,1.244,1.244,0,1,0,0-2.489Z" transform="translate(-183.018 -181)" fill="#278cb3"/>
    </g>
  </g>
</svg>
