<svg xmlns="http://www.w3.org/2000/svg" width="30.241" height="34.029" viewBox="0 0 30.241 34.029">
  <g id="invoice" transform="translate(-28.5)">
    <g id="Group_138" data-name="Group 138" transform="translate(28.5)">
      <g id="Group_137" data-name="Group 137">
        <path id="Path_205" data-name="Path 205" d="M110.494,253h-.665a1.329,1.329,0,1,0,0,2.659h.665a1.329,1.329,0,1,0,0-2.659Z" transform="translate(-103.183 -236.185)" fill="#278cb3"/>
        <path id="Path_206" data-name="Path 206" d="M198.27,173h-8.441a1.329,1.329,0,1,0,0,2.659h8.441a1.329,1.329,0,0,0,0-2.659Z" transform="translate(-177.866 -161.502)" fill="#278cb3"/>
        <path id="Path_207" data-name="Path 207" d="M46.77,31.371H33.817a2.662,2.662,0,0,1-2.659-2.659V5.317a2.662,2.662,0,0,1,2.659-2.659H50.16a2.662,2.662,0,0,1,2.659,2.659v7.51a1.329,1.329,0,0,0,2.659,0V5.317A5.323,5.323,0,0,0,50.16,0H33.817A5.323,5.323,0,0,0,28.5,5.317v23.4a5.323,5.323,0,0,0,5.317,5.317H46.77a1.329,1.329,0,1,0,0-2.659Z" transform="translate(-28.5)" fill="#278cb3"/>
        <path id="Path_208" data-name="Path 208" d="M110.494,333h-.665a1.329,1.329,0,1,0,0,2.659h.665a1.329,1.329,0,1,0,0-2.659Z" transform="translate(-103.183 -310.868)" fill="#278cb3"/>
        <path id="Path_209" data-name="Path 209" d="M198.27,93h-8.441a1.329,1.329,0,0,0,0,2.659h8.441a1.329,1.329,0,1,0,0-2.659Z" transform="translate(-177.866 -86.819)" fill="#278cb3"/>
        <path id="Path_210" data-name="Path 210" d="M352.755,260.109h-1.218a1.091,1.091,0,0,1-1.08-1.1v-.18a1.039,1.039,0,0,1,1.08-1.044h1.152a.647.647,0,0,1,.689.606,1.329,1.329,0,0,0,2.659,0,3.292,3.292,0,0,0-2.726-3.207v-.855a1.329,1.329,0,1,0-2.659,0v.9a3.712,3.712,0,0,0-1.749.962,3.66,3.66,0,0,0-1.1,2.638v.18a3.753,3.753,0,0,0,3.739,3.758h1.218a1.087,1.087,0,0,1,1.088,1.083v.631a1.029,1.029,0,0,1-1.088,1.014h-1.98a.627.627,0,0,1-.657-.624,1.329,1.329,0,1,0-2.659,0,3.243,3.243,0,0,0,.983,2.34,3.313,3.313,0,0,0,2.209.94v.734a1.329,1.329,0,1,0,2.659,0v-.77a3.65,3.65,0,0,0,3.192-3.633v-.631A3.748,3.748,0,0,0,352.755,260.109Z" transform="translate(-326.261 -236.185)" fill="#278cb3"/>
        <path id="Path_211" data-name="Path 211" d="M195.612,335.659a1.329,1.329,0,1,0,0-2.659h-5.782a1.329,1.329,0,1,0,0,2.659Z" transform="translate(-177.866 -310.868)" fill="#278cb3"/>
        <path id="Path_212" data-name="Path 212" d="M110.494,173h-.665a1.329,1.329,0,1,0,0,2.659h.665a1.329,1.329,0,1,0,0-2.659Z" transform="translate(-103.183 -161.502)" fill="#278cb3"/>
        <path id="Path_213" data-name="Path 213" d="M199.6,254.329A1.329,1.329,0,0,0,198.27,253h-8.441a1.329,1.329,0,1,0,0,2.659h8.441A1.329,1.329,0,0,0,199.6,254.329Z" transform="translate(-177.866 -236.185)" fill="#278cb3"/>
        <path id="Path_214" data-name="Path 214" d="M110.494,93h-.665a1.329,1.329,0,0,0,0,2.659h.665a1.329,1.329,0,1,0,0-2.659Z" transform="translate(-103.183 -86.819)" fill="#278cb3"/>
      </g>
    </g>
  </g>
</svg>
