<svg xmlns="http://www.w3.org/2000/svg" width="33.377" height="34.637" viewBox="0 0 33.377 34.637">
  <g id="solution" transform="translate(-2.578 -2)">
    <path id="Path_220" data-name="Path 220" d="M34.219,21.277a2.306,2.306,0,0,1,0-3.94,3.517,3.517,0,0,0,1.288-4.611L33.082,8.6a3.42,3.42,0,0,0-2.067-1.58,3.366,3.366,0,0,0-2.381.238,2.392,2.392,0,0,1-2.554,0A2.165,2.165,0,0,1,25,5.41,3.41,3.41,0,0,0,21.641,2H16.9a3.41,3.41,0,0,0-3.4,3.247,2.36,2.36,0,0,1-1.266,2.165,2.165,2.165,0,0,1-2.165,0,3.345,3.345,0,0,0-2.576-.336A3.42,3.42,0,0,0,5.459,8.6L3.035,12.727a3.388,3.388,0,0,0,1.223,4.611,2.332,2.332,0,0,1,0,3.94A3.4,3.4,0,0,0,3.035,25.91l2.381,4.124a3.41,3.41,0,0,0,4.459,1.342,2.349,2.349,0,0,1,2.544,0A2.165,2.165,0,0,1,13.5,33.238a3.41,3.41,0,0,0,3.4,3.4h4.741a3.41,3.41,0,0,0,3.4-3.193,2.36,2.36,0,0,1,1.266-2.165,2.165,2.165,0,0,1,2.165,0,3.345,3.345,0,0,0,2.576.336,3.42,3.42,0,0,0,2.067-1.58l2.392-4.113a3.374,3.374,0,0,0-1.288-4.643Zm-.758,3.453L31.08,28.843a1.087,1.087,0,0,1-1.5.39,4.492,4.492,0,0,0-4.5,0,4.633,4.633,0,0,0-2.338,3.962,1.082,1.082,0,0,1-1.082,1.082H16.9a1.082,1.082,0,0,1-1.082-1.082,4.492,4.492,0,0,0-2.251-3.886,4.643,4.643,0,0,0-4.611-.054,1.082,1.082,0,0,1-1.483-.4L5.081,24.73a1.084,1.084,0,0,1,.4-1.483,4.622,4.622,0,0,0,0-7.923,1.084,1.084,0,0,1-.4-1.483L7.462,9.728a1.116,1.116,0,0,1,1.5-.357,4.492,4.492,0,0,0,4.5,0A4.633,4.633,0,0,0,15.807,5.4a1.082,1.082,0,0,1,1.082-1.082H21.63A1.082,1.082,0,0,1,22.713,5.4a4.5,4.5,0,0,0,2.251,3.886,4.622,4.622,0,0,0,4.6.054,1.082,1.082,0,0,1,1.494.4l2.381,4.113a1.082,1.082,0,0,1-.4,1.483,4.622,4.622,0,0,0,0,7.923,1.108,1.108,0,0,1,.422,1.472Z" transform="translate(0 0)" fill="#268cb3"/>
    <path id="Path_221" data-name="Path 221" d="M20.067,16.016l-1.8.877-1.8-.877a1.158,1.158,0,1,0-1.028,2.067l1.667.833v1.591a1.158,1.158,0,1,0,2.316,0V18.9l1.667-.833a1.158,1.158,0,1,0-1.028-2.046Z" transform="translate(1 1.137)" fill="#268cb3"/>
    <path id="Path_222" data-name="Path 222" d="M24.147,11.939l-3.464-1.732a4.633,4.633,0,0,0-4.135,0l-3.464,1.732a4.6,4.6,0,0,0-2.554,4.124v5.325A4.622,4.622,0,0,0,13.2,25.545l3.464,1.667a4.633,4.633,0,0,0,1.948.455,4.546,4.546,0,0,0,1.992-.455l3.474-1.667A4.622,4.622,0,0,0,26.7,21.388V16.063A4.6,4.6,0,0,0,24.147,11.939Zm.238,9.449a2.3,2.3,0,0,1-1.31,2.078l-3.464,1.71a2.3,2.3,0,0,1-1.992,0L14.156,23.51a2.3,2.3,0,0,1-1.31-2.078V16.063a2.3,2.3,0,0,1,1.277-2.056c1.083-.52,2.49-1.256,3.464-1.732a2.251,2.251,0,0,1,2.057,0c.974.476,2.425,1.212,3.464,1.732a2.3,2.3,0,0,1,1.277,2.057Z" transform="translate(0.655 0.636)" fill="#268cb3"/>
  </g>
</svg>
